<svg width="158" height="158" fill="none" xmlns="http://www.w3.org/2000/svg"><path d="M142 79c0 34.794-28.206 63-63 63s-63-28.206-63-63 28.206-63 63-63 63 28.206 63 63z" fill="#49B200"/><path d="M79 142c34.794 0 63-28.206 63-63 0-7.35-1.259-14.407-3.573-20.966A63.365 63.365 0 00127 57c-34.794 0-63 28.206-63 63a62.897 62.897 0 003.573 20.966A63.363 63.363 0 0079 142z" fill="#91E584"/><path d="M29.099 40.539A63.212 63.212 0 0143 39c34.794 0 63 28.206 63 63 0 14.481-4.886 27.821-13.099 38.461A63.225 63.225 0 0179 142c-34.794 0-63-28.206-63-63 0-14.481 4.886-27.821 13.099-38.461z" fill="#D1FFC5"/><path d="M81.74 14.69c-21.816-.895-44.34 10.86-56.43 29.252-13.04 20-13.588 45.534-1.514 66.487 17.793 30.879 55.72 41.179 86.765 23.534 24.455-13.928 36.349-40.45 30.705-68.373-3.137-16.065-14.158-32.075-28.118-41.006-7.604-4.84-22.487-9.566-31.408-9.894zm26.128 12.202c8.428 4.855 15.584 11.75 21.08 20.579l5.072 8.094-8.508-.32c-8.316-.268-8.606-.346-9.104-2.344-.9-3.97-7.11-13.612-10.717-16.757-5.517-4.9-17.941-8.758-25.692-8.046-6.707.682-15.288 4.484-19.851 8.746-2.22 2.095-3.71 2.627-5.641 2.108-2.221-.597-6.73-.774-16.29-.652l-2.499.053 2.525-2.842c1.459-1.575 6.542-5.076 11.32-7.83 9.41-5.34 20.914-8.46 31.001-8.233 7.588.28 20.915 3.863 27.304 7.444zm-5.496 13.123c3.968 3.345 10.318 13.233 9.773 15.261-.13.483-2.328 1.342-4.887 2-2.655.632-6.658 2.041-9.005 3.067l-4.326 1.84-3.258-3.672c-3.162-3.646-3.207-3.865-1.727-9.37 1.35-5.021 1.339-5.75-.4-6.216-1.641-.442-2.112.156-3.229 4.309l-1.272 4.732-3.667-2.54c-2.084-1.492-6.794-4-10.572-5.74l-6.834-3.081 4.025-2.646c11.217-7.443 25.2-6.686 35.379 2.056zm34.909 27.3c4.881 23.058-6.619 49.271-27.097 61.887l-6.72 4.199 3.679-3.67c6.319-6.172 12.125-13.516 14.738-18.612 5.025-9.833 7.345-23.085 5.93-33.613-.406-3.112-.74-3.41-2.475-2.737-1.856.744-1.96 1.13-1.598 6.716.937 14.231-3.838 27.755-13.98 38.904l-6.088 6.854 2.276-10.778c3.474-16.773 1.902-29.415-5.419-43.395l-3.709-7.003 4.352-1.937c5.009-2.07 13.387-3.96 19.482-4.289 4.612-.21 13.957.853 14.96 1.744.334.297 1.089 2.882 1.669 5.73zm-60.296-14.14c25.821 17.194 33.907 51.055 18.727 78.246l-2.353 4.13-6.27-2.099c-8.896-3.117-17.317-8.384-18.354-11.459-1.198-3.635.23-11.639 2.783-16.13 1.3-2.136 4.262-5.068 6.642-6.602 3.535-2.364 4.155-3.129 3.23-4.31-1.35-1.915-3.514-1.566-6.785.972-6.2 4.961-10.009 11.807-10.642 18.782-.14 2.447-.537 4.308-.73 4.256-1.738-.467-11.818-13.429-15.059-19.478-4.326-7.79-4.3-7.887-.262-16.742 3.184-7.221 7.156-12.366 12.684-16.368 3.368-2.512 3.891-3.303 3.167-4.844-.725-1.541-1.26-1.478-4.297.19C54.739 64.28 47.83 72.26 44.609 78.85l-2.717 5.484-.818-3.12c-1.58-5.291-2.386-14.62-1.876-21.525.34-5.5.072-6.815-1.614-7.475-2.6-1.114-2.99.335-3.075 10.667-.461 30.217 17.394 58.937 44.789 72.205l5.94 2.943-4.175.12c-34.045.684-61.117-25.337-61.776-59.478-.1-8.104 3.75-22.809 7.848-29.577 2.922-4.703 3.438-5.082 8.18-5.775 2.893-.36 7.699-.518 10.752-.319 3.053.2 6.518.406 7.632.499 4.605.202 16.718 5.22 23.286 9.677z" fill="#2F4F4F"/></svg>